<?xml version="1.0" encoding="iso-8859-1"?>
<!-- Generator: Adobe Illustrator 19.2.1, SVG Export Plug-In . SVG Version: 6.00 Build 0)  -->
<svg class="icon-logo" version="1.1" id="logo" xmlns="http://www.w3.org/2000/svg" xmlns:xlink="http://www.w3.org/1999/xlink" x="0px" y="0px"
     viewBox="0 0 35.999 36" style="enable-background:new 0 0 35.999 36;" xml:space="preserve">
<g>
    <path d="M15.286,5.846c0-0.278,0.152-0.341,0.341-0.341h0.538c0.189,0,0.341,0.063,0.341,0.341v2.135h2.497V5.846
        c0-0.278,0.153-0.341,0.341-0.341h0.529c0.188,0,0.341,0.063,0.341,0.341v5.418c0,0.278-0.153,0.341-0.341,0.341h-0.529
        c-0.188,0-0.341-0.063-0.341-0.341V9.066h-2.497v2.198c0,0.278-0.152,0.341-0.341,0.341h-0.538c-0.189,0-0.341-0.063-0.341-0.341
        V5.846z"/>
    <path d="M25.452,5.846c0-0.278,0.152-0.341,0.341-0.341h3.18c0.278,0,0.341,0.153,0.341,0.341V6.25
        c0,0.188-0.063,0.341-0.341,0.341h-2.301v1.39h2.229c0.278,0,0.34,0.152,0.34,0.341v0.404c0,0.188-0.062,0.34-0.34,0.34h-2.229
        v1.454h2.301c0.278,0,0.341,0.152,0.341,0.341v0.403c0,0.189-0.063,0.341-0.341,0.341h-3.18c-0.189,0-0.341-0.063-0.341-0.341
        V5.846z"/>
    <path d="M5.793,15.161c0-0.279,0.152-0.341,0.34-0.341h1.821c1.302,0,1.974,0.654,1.974,1.659c0,0.673-0.377,1.05-0.817,1.256
        v0.018c0.539,0.126,1.014,0.619,1.014,1.382c0,1.121-0.861,1.785-2.117,1.785H6.133c-0.188,0-0.34-0.063-0.34-0.341V15.161z
         M7.748,17.332c0.574,0,0.96-0.252,0.96-0.754c0-0.502-0.359-0.718-0.852-0.718H7.013v1.472H7.748z M7.811,19.879
        c0.763,0,1.05-0.341,1.05-0.772c0-0.394-0.242-0.789-0.951-0.789H7.013v1.561H7.811z"/>
    <path d="M15.846,15.16c0-0.278,0.152-0.341,0.341-0.341h0.538c0.189,0,0.341,0.063,0.341,0.341v4.62h2.455
        c0.278,0,0.34,0.152,0.34,0.341v0.457c0,0.189-0.062,0.341-0.34,0.341h-3.334c-0.189,0-0.341-0.063-0.341-0.341V15.16z"/>
    <path d="M25.378,15.16c0-0.278,0.153-0.341,0.341-0.341h0.538c0.189,0,0.341,0.063,0.341,0.341v2.52h0.009l1.758-2.574
        c0.125-0.179,0.269-0.287,0.476-0.287h0.834c0.107,0,0.197,0.035,0.197,0.144c0,0.035-0.027,0.098-0.062,0.143l-1.893,2.646
        l1.919,2.835c0.036,0.054,0.09,0.126,0.09,0.189c0,0.089-0.072,0.143-0.206,0.143h-0.897c-0.207,0-0.35-0.116-0.467-0.287
        l-1.749-2.709h-0.009v2.655c0,0.278-0.152,0.341-0.341,0.341h-0.538c-0.188,0-0.341-0.063-0.341-0.341V15.16z"/>
    <path d="M7.369,25.393H5.953c-0.278,0-0.34-0.153-0.34-0.341v-0.404c0-0.188,0.062-0.341,0.34-0.341h4.052
        c0.279,0,0.342,0.153,0.342,0.341v0.404c0,0.188-0.063,0.341-0.342,0.341H8.589v4.674c0,0.278-0.153,0.341-0.341,0.341H7.71
        c-0.188,0-0.341-0.063-0.341-0.341V25.393z"/>
    <path d="M7.369,6.59H5.953c-0.278,0-0.34-0.153-0.34-0.341V5.845c0-0.188,0.062-0.341,0.34-0.341h4.052
        c0.279,0,0.342,0.153,0.342,0.341v0.404c0,0.188-0.063,0.341-0.342,0.341H8.589v4.674c0,0.278-0.153,0.341-0.341,0.341H7.71
        c-0.188,0-0.341-0.063-0.341-0.341V6.59z"/>
    <path d="M15.29,24.632c0-0.278,0.152-0.341,0.341-0.341h0.529c0.188,0,0.341,0.063,0.341,0.341v3.238
        c0,1.014,0.376,1.552,1.247,1.552c0.861,0,1.264-0.538,1.264-1.552v-3.238c0-0.278,0.153-0.341,0.342-0.341h0.528
        c0.189,0,0.342,0.063,0.342,0.341v3.23c0,1.901-1.149,2.645-2.476,2.645c-1.328,0-2.458-0.744-2.458-2.645V24.632z"/>
    <path d="M26.847,27.321l-1.624-2.718c-0.117-0.197,0.009-0.296,0.162-0.296h0.861c0.206,0,0.314,0.116,0.412,0.305l0.952,1.758
        l0.941-1.758c0.098-0.189,0.206-0.305,0.413-0.305h0.834c0.153,0,0.287,0.099,0.161,0.296l-1.65,2.718l1.713,2.79
        c0.126,0.197-0.008,0.296-0.161,0.296h-0.906c-0.207,0-0.314-0.116-0.422-0.296l-0.986-1.758l-0.996,1.758
        c-0.108,0.18-0.215,0.296-0.422,0.296h-0.861c-0.152,0-0.278-0.099-0.162-0.287L26.847,27.321z"/>
    <path d="M35.434,36H0.566C0.253,36,0,35.747,0,35.434V0.566C0,0.253,0.253,0,0.566,0h34.868c0.312,0,0.565,0.253,0.565,0.566
        v34.868C35.999,35.747,35.746,36,35.434,36 M1.238,34.774h33.529V1.233H1.238V34.774z"/>
</g>
</svg>
