<?xml version="1.0" encoding="iso-8859-1"?>
<!-- Generator: Adobe Illustrator 19.2.1, SVG Export Plug-In . SVG Version: 6.00 Build 0)  -->
<svg class="icon=skull" version="1.1" id="skull" xmlns="http://www.w3.org/2000/svg" xmlns:xlink="http://www.w3.org/1999/xlink" x="0px" y="0px"
     viewBox="0 0 134 165" style="enable-background:new 0 0 134 165;" xml:space="preserve">
<g>
    <path d="M1,69c0-7,0-14,0-21c0.285-0.582,0.737-1.138,0.831-1.75C5.323,23.653,19.252,10.729,40.516,4.831
        C46.566,3.153,52.833,2.255,59,1c5.667,0,11.333,0,17,0c5.544,1.029,11.168,1.746,16.618,3.143
        c18.874,4.839,34.015,14.734,38.939,34.585c2.432,9.804,2.337,20.448,2.004,30.667c-0.35,10.726-2.818,21.15-11.821,28.67
        c-2.831,2.365-2.525,5.624-1.031,8.715c1.374,2.841,3.105,5.526,4.286,8.439c1.997,4.925,2.017,9.855-1.73,14.053
        c-3.723,4.17-8.303,5.859-13.932,4.142c-4.977-1.518-9.524-0.074-11.176,4.763c-1.597,4.678-2.167,9.956-1.988,14.927
        c0.219,6.092-1.739,10.28-7.169,12.896c-15,0-30,0-45,0c-4.564-2.507-6.51-6.303-6.047-11.53c0.263-2.975,0.048-5.993,0.047-8.991
        c-0.003-10.293-4.401-13.902-14.36-11.782c-9.144,1.946-16.9-5.372-14.841-14.509c0.89-3.951,3.11-7.636,4.943-11.333
        c2.102-4.24,2.02-7.896-1.808-11.183c-5.175-4.444-7.487-10.48-8.875-16.936C2.294,76.174,1.681,72.579,1,69z M128.717,59.418
        c-0.35-25.361-10.988-41.203-33.571-48.223C76.85,5.507,58.32,5.521,40.027,11.231c-15.169,4.734-26.582,13.972-30.88,29.888
        c-3.73,13.811-2.891,27.788,1.016,41.449c1.003,3.505,3.399,6.86,5.872,9.647c5.872,6.618,6.751,11.187,2.697,18.968
        c-0.922,1.77-2.512,3.409-2.778,5.255c-0.441,3.062-1.039,6.809,0.326,9.172c0.898,1.555,5.259,1.98,7.838,1.544
        C35.033,125.308,43.99,132.57,44,143.753c0.003,3.833-0.247,7.689,0.118,11.487c0.157,1.628,1.588,3.134,2.441,4.695
        c1.32-0.982,2.664-1.933,3.951-2.957c1.071-0.852,2.124-2.544,3.095-2.481c1.042,0.068,1.928,1.811,2.977,2.712
        c1.143,0.981,2.337,2.422,3.619,2.549c0.948,0.094,2.103-1.563,3.11-2.5c1.015-0.944,2.197-2.914,2.885-2.743
        c1.271,0.316,2.199,1.909,3.337,2.893c1.044,0.903,2.282,2.49,3.24,2.358c1.266-0.173,2.359-1.71,3.497-2.693
        c1.047-0.905,2.043-2.557,3.087-2.578c0.969-0.019,1.884,1.805,2.982,2.598c1.438,1.038,3.256,2.808,4.499,2.515
        c1.305-0.307,2.823-2.592,3.017-4.165c0.446-3.611,0.134-7.315,0.147-10.981c0.043-12.073,9.148-19.417,20.887-16.853
        c6.487,1.416,10.932-3.304,8.789-9.568c-0.851-2.488-2.43-4.723-3.643-7.091c-3.934-7.681-2.89-12.083,2.632-18.556
        c3.127-3.665,5.863-8.2,7.118-12.796C127.564,73.091,127.813,66.165,128.717,59.418z"/>
    <path d="M50.635,80.727c0.091,8.287-6.854,15.268-15.186,15.264c-8.125-0.004-14.935-6.625-15.193-14.773
        c-0.264-8.311,6.529-15.321,14.946-15.425C43.688,65.689,50.543,72.322,50.635,80.727z M44.62,80.648
        c-0.121-5.08-4.328-8.996-9.496-8.84c-4.885,0.148-8.84,4.166-8.859,9.001c-0.02,4.999,4.242,9.219,9.266,9.176
        C40.568,89.941,44.739,85.656,44.62,80.648z"/>
    <path d="M84.711,80.888c-0.021-8.563,6.565-15.123,15.156-15.097c8.459,0.025,15.209,6.859,15.08,15.269
        c-0.124,8.135-6.883,14.859-15.009,14.932C91.484,96.068,84.732,89.37,84.711,80.888z M99.778,89.986
        c5.033-0.011,9.229-4.254,9.161-9.262c-0.069-5.033-4.299-9.042-9.423-8.931c-5.008,0.109-8.745,3.903-8.802,8.936
        C90.656,85.874,94.693,89.997,99.778,89.986z"/>
    <path d="M67.109,117.349c-1.136,1.43-1.603,2.59-2.401,2.904c-1.731,0.68-3.633,0.927-5.465,1.35
        c-0.168-1.814-1.012-3.918-0.382-5.391c2.249-5.254,4.998-10.293,8.277-16.853c3.233,6.287,5.953,10.976,8.029,15.935
        c0.748,1.787-0.054,4.223-0.148,6.363c-2.062-0.704-4.151-1.341-6.167-2.159C68.323,119.284,68.021,118.509,67.109,117.349z"/>
</g>
</svg>
