<?xml version="1.0" encoding="utf-8"?>
<!-- Generator: Adobe Illustrator 19.2.1, SVG Export Plug-In . SVG Version: 6.00 Build 0)  -->
<svg version="1.1" id="email" xmlns="http://www.w3.org/2000/svg" xmlns:xlink="http://www.w3.org/1999/xlink" x="0px" y="0px"
	 viewBox="0 0 44.8 44.8" style="enable-background:new 0 0 44.8 44.8;" xml:space="preserve">
<path d="M22.4,0c12.4,0,22.4,10,22.4,22.4s-10,22.4-22.4,22.4S0,34.8,0,22.4S10,0,22.4,0z M30.4,14.4h-16c-1.1,0-2,0.9-2,2v12
	c0,1.1,0.9,2,2,2h16c1.1,0,2-0.9,2-2v-12C32.4,15.3,31.5,14.4,30.4,14.4z"/>
<polygon points="30.4,18.4 22.4,23.4 14.4,18.4 14.4,16.4 22.4,21.4 30.4,16.4 "/>
</svg>
