<?xml version="1.0" encoding="utf-8"?>
<!-- Generator: Adobe Illustrator 20.1.0, SVG Export Plug-In . SVG Version: 6.00 Build 0)  -->
<svg class="icon-rocker-hand" version="1.1" id="rocker-hand" xmlns="http://www.w3.org/2000/svg" xmlns:xlink="http://www.w3.org/1999/xlink" x="0px" y="0px"
	 viewBox="0 0 30 30" style="enable-background:new 0 0 30 30;" xml:space="preserve">
<path d="M22.5,0c-1.7,0-3,1.4-3,3.2v2.5c-0.5-0.5-1.2-0.8-2-0.8c-1.1,0-2,0.5-2.5,1.4C14.5,5.5,13.6,5,12.5,5c-0.8,0-1.5,0.3-2,0.8
	V3.3c0-1.9-1.3-3.2-3-3.2s-3,1.4-3,3.2V20c0,0.1,0,0.1,0,0.2C4.8,25.7,9.4,30,15,30s10.1-4.4,10.5-9.8c0-0.1,0-0.1,0-0.2V3.2
	C25.5,1.4,24.2,0,22.5,0z M20.5,3.2c0-1.3,0.8-2.2,2-2.2s2,0.9,2,2.2V13h-4v-1V8.2V3.2z M17.5,6c1.2,0,2,0.9,2,2.2V12v1h-4v-1V8.2
	C15.5,6.9,16.3,6,17.5,6z M12.5,6c1.2,0,2,0.9,2,2.2V12v1h-4v-1V8.2C10.5,6.9,11.3,6,12.5,6z M15,29c-5.2,0-9.5-4.3-9.5-9.5V3.2
	c0-1.3,0.8-2.2,2-2.2s2,0.9,2,2.2v5V12v1v0.1c-1.4,0.4-2.3,1.4-2.3,2.9c0,1.7,1.4,3,3.2,3h6c-1.4,1.1-2,2.9-2,4
	c0,0.3,0.2,0.5,0.5,0.5s0.6-0.2,0.6-0.5c0-1.4,1.2-4,4-4H20c0.3,0,0.5-0.2,0.5-0.5S20.3,18,20,18h-9.5c-1.3,0-2.2-0.8-2.2-2
	s0.9-2,2.2-2h4h1h9v5.5C24.5,24.7,20.2,29,15,29z"/>
</svg>
