<?xml version="1.0" encoding="iso-8859-1"?>
<!-- Generator: Adobe Illustrator 19.2.1, SVG Export Plug-In . SVG Version: 6.00 Build 0)  -->
<svg class="icon-clock" version="1.1" id="clock" xmlns="http://www.w3.org/2000/svg" xmlns:xlink="http://www.w3.org/1999/xlink" x="0px" y="0px"
     viewBox="0 0 200 200" style="enable-background:new 0 0 200 200;" xml:space="preserve">
<g>
    <path d="M40,200c-2.756-2.607-2.711-5.232-0.579-8.347c3.66-5.348,7.362-10.719,10.403-16.423
        c2.456-4.606,5.625-6.701,10.769-5.955c1.03,0.15,2.128-0.166,3.681-0.314c-49.976-29.08-52.717-88.641-21.626-122.359
        c31.551-34.216,82.169-34.472,114.033-0.73c31.348,33.195,29.778,93.555-20.935,123.488c11.428-3.298,14.032,5.653,18.333,12.215
        c2.187,3.336,4.131,6.842,6.466,10.068c2.23,3.08,2.131,5.733-0.545,8.357c-1,0-2,0-3,0c-4.254-6.325-8.645-12.564-12.697-19.015
        c-1.701-2.709-3.598-3.846-6.838-3.831c-24.981,0.114-49.963,0.114-74.944,0c-3.237-0.015-5.136,1.104-6.837,3.822
        C51.641,187.433,47.25,193.672,43,200C42,200,41,200,40,200z M100.114,169.005c32.25,1.682,69.257-24.491,69.675-69.978
        c0.361-39.284-30.56-70.087-69.689-70.15c-39.135-0.063-70.103,30.62-69.911,69.916C30.411,144.037,67.289,170.814,100.114,169.005
        z"/>
    <path d="M200,39c-1.975,4.853-3.591,9.894-6.024,14.505c-2.464,4.669-4.644,4.933-8.733,1.79
        c-15.035-11.555-29.994-23.208-45.024-34.77c-3.267-2.513-3.201-5.112-0.713-8.04c5.012-5.897,11.366-9.583,18.815-11.499
        C159.238,0.75,160.108,0.333,161,0c3,0,6,0,9,0c5.206,2.346,10.77,4.13,15.54,7.162C193.771,12.392,197.439,20.947,200,30
        C200,33,200,36,200,39z M188.141,47.427c7.053-12.01,3.431-27.557-7.634-34.9c-10.668-7.08-25.609-5.565-32.677,3.678
        C161.145,26.518,174.463,36.833,188.141,47.427z"/>
    <path d="M39,0c7.284,2.279,14.365,4.901,19.822,10.628c4.766,5.002,4.682,6.917-0.682,11.073
        C44.076,32.598,30.021,43.509,15.96,54.41c-5.495,4.26-7.609,4.038-10.793-2.125C2.998,48.088,1.25,45,0,39
        c0-3,0-7.167,0.667-11.241C2,22.625,3.931,19.509,6.845,14.858C12.125,6.431,20.689,2.483,30,0C33,0,36,0,39,0z M52.27,16.141
        c-8.049-9.52-23.376-10.663-33.749-2.961C8.042,20.96,4.874,36.444,11.94,47.32C25.304,36.988,38.635,26.682,52.27,16.141z"/>
    <path d="M105,94.997c7.669,0,14.639,0.068,21.605-0.031c3.132-0.044,6.076,0.47,6.055,4.161c-0.019,3.365-2.77,3.964-5.752,3.928
        c-8.151-0.097-16.304-0.124-24.454,0.003c-4.092,0.063-5.575-1.752-5.551-5.736c0.104-16.635,0.057-33.272,0.03-49.908
        c-0.005-2.876,0.224-5.609,4.002-5.506c3.59,0.098,4.072,2.735,4.069,5.631C104.991,61.347,105,75.154,105,88.962
        C105,90.767,105,92.571,105,94.997z"/>
</g>
</svg>
