<?xml version="1.0" encoding="utf-8"?>
<!-- Generator: Adobe Illustrator 20.1.0, SVG Export Plug-In . SVG Version: 6.00 Build 0)  -->
<svg class="icon-guide" version="1.1" id="guide" xmlns="http://www.w3.org/2000/svg" xmlns:xlink="http://www.w3.org/1999/xlink" x="0px" y="0px"
	 viewBox="0 0 30 30" style="enable-background:new 0 0 30 30;" xml:space="preserve">
<path d="M15,0C6.7,0,0,6.7,0,15s6.7,15,15,15s15-6.7,15-15S23.3,0,15,0z M15,20.2c-2.9,0-5.2-2.4-5.2-5.2c0-2.9,2.4-5.2,5.2-5.2
	c2.9,0,5.2,2.4,5.2,5.2C20.2,17.9,17.9,20.2,15,20.2z M21,13.2l5.8-5.8c1.4,2.2,2.2,4.8,2.2,7.5c0,2.8-0.8,5.4-2.2,7.5L21,16.7
	c0.2-0.6,0.3-1.1,0.3-1.7C21.2,14.4,21.2,13.8,21,13.2z M26.2,6.6l-5.6,5.6C20,11,19,10,17.8,9.4l5.6-5.6
	C24.4,4.6,25.4,5.6,26.2,6.6z M22.5,3.2L16.7,9c-0.6-0.2-1.1-0.3-1.7-0.3c-0.6,0-1.2,0.1-1.7,0.3L7.5,3.2C9.7,1.8,12.3,1,15,1
	C17.8,1,20.4,1.8,22.5,3.2z M6.6,3.8l5.6,5.6C11,10,10,11,9.4,12.2L3.8,6.6C4.6,5.6,5.6,4.6,6.6,3.8z M3.2,7.5L9,13.3
	c-0.2,0.6-0.3,1.1-0.3,1.8c0,0.6,0.1,1.2,0.3,1.7l-5.8,5.8C1.8,20.4,1,17.8,1,15S1.8,9.6,3.2,7.5z M3.8,23.4l5.6-5.6
	C10,19,11,20,12.2,20.6l-5.6,5.6C5.6,25.4,4.6,24.4,3.8,23.4z M7.5,26.8l5.8-5.8c0.6,0.2,1.1,0.3,1.8,0.3c0.6,0,1.2-0.1,1.8-0.3
	l5.8,5.8C20.4,28.2,17.8,29,15,29S9.6,28.2,7.5,26.8z M23.4,26.2l-5.6-5.6C19,20,20,19,20.6,17.8l5.6,5.6
	C25.4,24.4,24.4,25.4,23.4,26.2z"/>
</svg>
