<?xml version="1.0" encoding="utf-8"?>
<svg version="1.0" xmlns="http://www.w3.org/2000/svg" viewBox="0 0 420 540"
 xml:space="preserve" style="enable-background:new 0 0 420 540;" class="icon-skull">
<g transform="translate(0,540) scale(0.100000,-0.100000)">
<path d="M1925 5176 c-5 -2 -71 -9 -145 -15 -151 -13 -299 -35 -376 -57 -28
-8 -59 -14 -70 -14 -10 0 -36 -6 -59 -14 -22 -7 -65 -21 -95 -31 -191 -59
-402 -165 -545 -274 -113 -87 -287 -273 -318 -341 -4 -8 -16 -28 -27 -45 -64
-99 -132 -270 -164 -410 -44 -195 -46 -220 -46 -513 0 -289 9 -401 47 -597 24
-125 75 -280 114 -345 5 -8 12 -22 16 -30 13 -31 94 -129 136 -166 23 -22 58
-59 77 -83 33 -40 35 -48 35 -115 -1 -74 -15 -114 -84 -231 -32 -54 -58 -106
-86 -172 -26 -62 -26 -225 0 -285 31 -71 112 -167 160 -189 11 -5 27 -13 35
-18 8 -5 32 -16 53 -25 49 -21 191 -21 227 -1 16 9 54 14 103 15 126 0 178
-37 275 -198 l32 -52 0 -259 c0 -234 2 -263 19 -302 66 -148 260 -224 397
-154 l49 25 53 -25 c89 -42 166 -34 282 30 21 12 28 12 45 0 52 -38 91 -49
170 -49 79 0 96 5 175 49 21 12 28 12 45 0 43 -32 93 -48 157 -53 129 -8 248
61 299 177 17 39 19 68 19 302 l0 259 32 52 c97 161 149 198 275 198 49 -1 87
-6 103 -15 36 -20 178 -20 227 1 21 9 45 20 53 25 8 5 24 13 35 18 48 22 129
118 160 189 26 60 26 223 0 285 -28 66 -54 118 -86 172 -69 117 -83 157 -84
231 0 67 2 75 35 115 19 24 54 61 77 83 52 46 142 163 159 206 3 8 12 29 19
45 98 224 135 470 135 887 0 293 -2 318 -46 513 -32 140 -100 311 -164 410
-11 17 -23 37 -27 45 -31 68 -205 254 -318 341 -73 55 -186 123 -280 168 -38
19 -78 38 -87 42 -21 11 -70 29 -158 58 -132 43 -158 51 -175 51 -10 0 -41 6
-69 14 -63 18 -208 41 -346 57 -105 11 -456 22 -475 15z m350 -187 c55 -6 138
-14 185 -19 145 -14 376 -67 468 -106 18 -8 40 -14 48 -14 9 0 28 -6 42 -14
15 -7 43 -21 62 -29 75 -33 126 -59 155 -78 17 -10 37 -22 45 -26 32 -15 168
-119 224 -172 174 -165 321 -439 356 -666 5 -33 13 -76 19 -95 18 -57 14 -581
-4 -709 -49 -336 -106 -474 -255 -621 -59 -59 -103 -113 -135 -170 -17 -29
-20 -53 -20 -145 1 -81 5 -118 17 -140 8 -16 27 -55 42 -85 14 -30 39 -77 56
-105 16 -27 32 -57 36 -65 3 -8 13 -28 21 -44 10 -18 16 -56 16 -107 1 -75 -1
-79 -36 -122 -66 -81 -163 -109 -250 -72 -55 23 -208 20 -281 -5 -150 -53
-235 -144 -320 -343 -13 -31 -16 -81 -16 -302 l0 -264 -37 -30 c-30 -25 -47
-31 -84 -31 -58 0 -93 29 -109 91 -14 53 -43 78 -91 79 -46 0 -76 -28 -90 -86
-15 -57 -48 -84 -104 -84 -53 0 -89 31 -105 91 -13 50 -43 78 -82 79 -57 0
-98 -38 -98 -91 0 -11 -13 -34 -29 -50 -24 -23 -38 -29 -73 -29 -55 1 -80 22
-102 88 -32 96 -92 99 -115 6 -16 -64 -52 -94 -110 -94 -37 0 -54 6 -84 31
l-37 30 0 264 c0 221 -3 271 -16 302 -85 199 -170 290 -320 343 -73 25 -226
28 -281 5 -87 -37 -184 -9 -250 72 -35 43 -37 47 -36 122 0 51 6 89 16 107 8
16 18 36 21 44 4 8 20 38 36 65 17 28 42 75 56 105 15 30 34 69 42 85 12 22
16 59 17 140 0 92 -3 116 -20 145 -32 57 -76 111 -135 170 -149 147 -206 285
-255 621 -18 128 -22 652 -4 709 6 19 14 62 19 95 33 214 159 462 324 634 47
49 222 188 256 204 8 4 29 16 45 26 56 36 238 121 260 121 8 0 29 6 47 14 112
48 350 96 573 117 66 6 129 12 140 13 50 8 249 5 340 -5z"/>
<path d="M1020 3230 c-166 -30 -296 -150 -350 -323 -62 -198 37 -423 230 -525
100 -53 228 -66 330 -34 132 41 228 124 291 251 32 64 33 70 33 186 0 116 -1
123 -34 189 -22 46 -54 90 -95 130 -57 57 -77 70 -166 109 -44 19 -177 28
-239 17z m210 -200 c47 -24 82 -58 116 -111 25 -40 28 -53 28 -134 1 -87 -1
-92 -34 -141 -62 -92 -136 -134 -234 -134 -141 0 -276 134 -276 275 0 86 68
197 150 244 58 34 185 34 250 1z"/>
<path d="M2960 3230 c-140 -23 -264 -120 -332 -260 -30 -62 -32 -71 -32 -185
0 -116 1 -122 33 -186 84 -169 239 -268 416 -269 163 0 323 99 403 250 140
262 -28 601 -323 650 -59 10 -104 10 -165 0z m205 -198 c85 -46 155 -158 155
-247 0 -141 -135 -275 -276 -275 -98 0 -172 42 -234 134 -33 49 -35 54 -34
141 0 81 3 94 28 134 48 75 104 117 176 132 49 10 149 0 185 -19z"/>
<path d="M2042 2168 c-7 -7 -12 -15 -12 -19 0 -5 -13 -27 -29 -51 -106 -159
-211 -392 -211 -468 0 -106 147 -105 232 1 29 37 68 52 68 28 0 -15 58 -70 97
-91 32 -18 99 -24 119 -10 37 25 40 103 7 187 -18 45 -107 230 -126 260 -7 10
-23 37 -37 60 -13 22 -30 49 -37 60 -7 11 -16 28 -19 38 -7 20 -34 23 -52 5z"/>
</g>
</svg>
