<?xml version="1.0" encoding="iso-8859-1"?>
<svg version="1.1" class="icon-logo-facebook" xmlns="http://www.w3.org/2000/svg" xmlns:xlink="http://www.w3.org/1999/xlink" x="0px" y="0px"
     viewBox="0 0 32 32" style="enable-background:new 0 0 32 32;" xml:space="preserve">
<path d="M16,0C7.164,0,0,7.164,0,16c0,8.838,7.164,16,16,16c8.837,0,16-7.162,16-16C32,7.164,24.837,0,16,0z M19.428,16.006h-2.242
    c0,3.582,0,7.994,0,7.994h-3.322c0,0,0-4.367,0-7.994h-1.58v-2.824h1.58v-1.828c0-1.309,0.621-3.354,3.352-3.354l2.461,0.01v2.742
    c0,0-1.496,0-1.786,0c-0.291,0-0.705,0.144-0.705,0.769v1.66h2.533L19.428,16.006z"/>
</svg>
