<?xml version="1.0" encoding="utf-8"?>
<!-- Generator: Adobe Illustrator 20.1.0, SVG Export Plug-In . SVG Version: 6.00 Build 0)  -->
<svg class="icon-bow" version="1.1" id="bow-1" xmlns="http://www.w3.org/2000/svg" xmlns:xlink="http://www.w3.org/1999/xlink" x="0px" y="0px"
	 viewBox="0 0 30 30" style="enable-background:new 0 0 30 30;" xml:space="preserve">
<path d="M29,6.2c-0.5-0.3-1.1-0.3-1.7,0.1l-9.9,5.3l0,0c-0.7-0.5-1.6-0.8-2.5-0.8c-1.1,0-2.2,0.5-2.9,1.2L2.5,6.4
	C1.9,6.1,1.3,6,0.8,6.3C0.3,6.6,0,7.2,0,7.9v14.4c0,0.7,0.3,1.3,0.8,1.6C1,23.9,1.3,24,1.5,24c0.3,0,0.6-0.1,1-0.3l9.9-5.4
	c0.7,0.6,1.6,0.9,2.6,0.9s1.9-0.3,2.6-0.9l9.9,5.4c0.3,0.2,0.7,0.3,1,0.3c0.3,0,0.5-0.1,0.8-0.2c0.5-0.3,0.8-0.9,0.8-1.6V7.8
	C29.8,7.1,29.5,6.5,29,6.2z M1.9,22.8C1.6,23,1.3,23,1.2,22.9c-0.2-0.1-0.3-0.4-0.3-0.7V7.8c0-0.4,0.1-0.6,0.3-0.7
	C1.4,7,1.6,7,1.9,7.2l9.5,5.5c-0.3,0.5-0.6,1.1-0.6,1.8H6.2c-0.3,0-0.5,0.2-0.5,0.5c0,0.3,0.2,0.5,0.5,0.5h4.6
	c0.1,0.8,0.4,1.5,0.9,2.1L1.9,22.8z M11.7,15c0-1.8,1.5-3.2,3.2-3.2S18,13.3,18,15s-1.5,3.2-3.2,3.2S11.7,16.8,11.7,15z M28.8,22.1
	c0,0.4-0.1,0.6-0.3,0.7c-0.2,0.1-0.5,0.1-0.8-0.1l-9.6-5.2c0.5-0.6,0.8-1.3,0.9-2.1h4.6c0.3,0,0.5-0.2,0.5-0.5
	c0-0.3-0.2-0.5-0.5-0.5H19c-0.1-0.8-0.4-1.6-0.9-2.2l9.7-5.1C28.1,7,28.4,7,28.6,7.1c0.2,0.1,0.3,0.4,0.3,0.7L28.8,22.1L28.8,22.1z"
	/>
</svg>
