<?xml version="1.0" encoding="utf-8"?>
<!-- Generator: Adobe Illustrator 20.1.0, SVG Export Plug-In . SVG Version: 6.00 Build 0)  -->
<svg class="icon-logo-text" version="1.1" id="logo-text" xmlns="http://www.w3.org/2000/svg" xmlns:xlink="http://www.w3.org/1999/xlink" x="0px" y="0px"
	 viewBox="0 0 90 17.3" style="enable-background:new 0 0 90 17.3;" xml:space="preserve">
<title>The Groom’s Guide by THE BLACK TUX</title>
<g>
	<path d="M2.2,0.8H1.6C1,0.8,0.9,1.2,0.8,1.6S0.7,2.4,0.2,2.4H0V0l0.4,0.1c0.1,0,0.3,0.1,0.4,0.1h4.3c0.1,0,0.3,0,0.4-0.1L6,0v2.4
		H5.8C5.3,2.4,5.3,2,5.2,1.6S5,0.8,4.4,0.8H3.8v6.4c0,0.6,0.6,0.3,0.6,0.6v0.4H1.5V7.8c0-0.3,0.6,0,0.6-0.6V0.8z"/>
	<path d="M7.1,1c0-0.5-0.6-0.2-0.6-0.6V0.2h2.1v3C8.9,2.8,9.5,2.5,10,2.5c0.9,0,1.5,0.6,1.5,1.7v3.1c0,0.5,0.6,0.2,0.6,0.6v0.3H9.5
		V7.9c0-0.4,0.5-0.1,0.5-0.6V4.2c0-0.6-0.2-0.9-0.6-0.9c-0.3,0-0.7,0.2-0.8,0.5v3.5C8.6,7.8,9,7.6,9,7.9v0.3H6.5V7.9
		c0-0.4,0.6-0.1,0.6-0.6V1z"/>
	<path d="M14.4,5.4v0.4c0,0.9,0.3,1.9,1.2,1.9c0.7,0,1.4-0.5,1.5-1.3l0.5,0.4c-0.3,1-1.2,1.6-2.2,1.6c-1.5,0-2.7-1.2-2.7-2.7
		c0-0.1,0-0.2,0-0.2c-0.1-1.5,0.9-2.8,2.4-2.9c0,0,0.1,0,0.1,0c1.3,0,2.3,1,2.4,2.3c0,0.1,0,0.2,0,0.4v0.2L14.4,5.4z M16,4.7V4.4
		c0-0.9-0.2-1.2-0.7-1.2c-0.7,0-0.9,0.7-0.9,1.6L16,4.7z"/>
	<path d="M27.2,6.9c0,0.2,0.1,0.3,0.3,0.3v0.2c-0.7,0.7-1.8,1.1-2.8,1c-2.4,0-3.4-2-3.4-4.2S22.4,0,24.4,0c0.6,0,1.3,0.2,1.8,0.6
		c0.1,0,0.2-0.1,0.2-0.2h0.5v2.6h-0.3c-0.7,0-0.3-2.3-1.9-2.3c-1.2,0-1.5,1.4-1.5,3.8c0,2.2,0.4,3.4,1.5,3.4c0.7,0,0.9-0.4,0.9-1.3
		V5.6c0-0.8-0.6-0.5-0.6-0.8V4.3h2.5c-0.1,0.1-0.2,0.3-0.2,0.4V6.9z"/>
	<path d="M28.8,3.5c0-0.5-0.6-0.2-0.6-0.6V2.7h2v1.5l0,0c0.4-1,0.7-1.6,1.4-1.6c0.5,0,0.9,0.5,0.8,1c0,0,0,0,0,0c0,0.5-0.2,1-0.8,1
		S31.2,4,31,4s-0.2,0.2-0.3,0.4c-0.2,0.4-0.3,0.8-0.3,1.2v1.7c0,0.5,0.6,0.2,0.6,0.6v0.3h-2.6V7.9c0-0.4,0.6-0.1,0.6-0.6V3.5z"/>
	<path d="M37.8,5.4C38,6.8,37,8.1,35.6,8.3s-2.7-0.8-2.9-2.2c0-0.2,0-0.5,0-0.7c-0.2-1.4,0.8-2.7,2.2-2.9s2.7,0.8,2.9,2.2
		C37.8,5,37.8,5.2,37.8,5.4z M36.1,5.4c0-1.4-0.1-2.4-0.8-2.4s-0.8,1-0.8,2.4s0.1,2.4,0.8,2.4S36.1,6.9,36.1,5.4L36.1,5.4z"/>
	<path d="M43.5,5.4c0.2,1.4-0.8,2.7-2.2,2.9s-2.7-0.8-2.9-2.2c0-0.2,0-0.5,0-0.7c-0.2-1.4,0.8-2.7,2.2-2.9s2.7,0.8,2.9,2.2
		C43.6,5,43.6,5.2,43.5,5.4z M41.8,5.4c0-1.4-0.1-2.4-0.8-2.4s-0.8,1-0.8,2.4s0.1,2.4,0.8,2.4S41.8,6.9,41.8,5.4L41.8,5.4z"/>
	<path d="M46.3,2.7v0.4c0.4-0.4,0.9-0.5,1.4-0.5c0.5,0,1,0.2,1.2,0.6c0.4-0.4,1-0.6,1.5-0.6c0.9,0,1.5,0.5,1.5,1.8v3
		c0,0.5,0.6,0.2,0.6,0.6v0.3h-2.6V7.9c0-0.4,0.5-0.1,0.5-0.6V4.1c0-0.5-0.2-0.8-0.6-0.8c-0.3,0-0.6,0.2-0.8,0.4v3.6
		c0,0.5,0.4,0.2,0.4,0.6v0.3h-2.3V7.9c0-0.4,0.4-0.1,0.4-0.6V4.1c0-0.5-0.2-0.8-0.6-0.8c-0.3,0-0.6,0.2-0.8,0.4v3.6
		c0,0.5,0.6,0.2,0.6,0.6v0.3h-2.6V7.9c0-0.4,0.6-0.1,0.6-0.6V3.5c0-0.5-0.6-0.2-0.6-0.6V2.7H46.3z"/>
	<path d="M53.3,3.1c0.3-0.3,0.6-0.6,0.8-1c0-0.2-0.9-0.2-0.9-1.1c0-0.5,0.3-0.9,0.8-0.9c0,0,0,0,0,0C54.8,0,55,0.6,55,1.1
		c-0.1,0.9-0.5,1.8-1.3,2.3L53.3,3.1z"/>
	<path d="M57.3,2.5c0.7,0,1.8,0.3,1.8,1c0,0.4-0.3,0.7-0.6,0.7c0,0,0,0-0.1,0c-0.4,0-0.7-0.2-0.7-0.6c0-0.2,0.1-0.3,0.1-0.4
		S57.6,3,57.3,3c-0.3,0-0.6,0.2-0.6,0.5c0,0,0,0,0,0.1c0,1.1,2.6,1,2.6,2.7c0,1.2-1,2.1-2.2,2c-0.1,0-0.1,0-0.2,0
		c-1.1,0.1-2-0.4-2-1.2c0-0.4,0.3-0.8,0.7-0.8c0,0,0.1,0,0.1,0c0.4,0,0.7,0.2,0.7,0.6c0,0,0,0.1,0,0.1c0,0.2-0.1,0.3-0.1,0.5
		s0.1,0.4,0.5,0.4c0.6,0,1-0.3,1-0.8c0-1.1-2.6-1-2.6-2.8C55.4,3.2,56.3,2.4,57.3,2.5C57.3,2.5,57.3,2.5,57.3,2.5z"/>
	<path d="M68.9,6.9c0,0.2,0.1,0.3,0.3,0.3v0.2c-0.7,0.7-1.8,1.1-2.8,1c-2.4,0-3.4-2-3.4-4.2S64.1,0,66.1,0c0.6,0,1.3,0.2,1.8,0.6
		c0.2,0,0.2-0.1,0.2-0.2h0.5v2.6h-0.3c-0.7,0-0.3-2.3-1.9-2.3c-1.2,0-1.5,1.4-1.5,3.8c0,2.2,0.4,3.4,1.5,3.4c0.7,0,0.9-0.4,0.9-1.3
		V5.6c0-0.8-0.6-0.5-0.6-0.8V4.3h2.4C69,4.4,69,4.6,68.9,4.8L68.9,6.9z"/>
	<path d="M73.4,3.5c0-0.5-0.6-0.2-0.6-0.6V2.7h2.1v4.7c0,0.5,0.6,0.2,0.6,0.6v0.3h-2.1V7.8c-0.4,0.4-0.9,0.6-1.4,0.6
		c-1.2,0-1.5-0.8-1.5-1.8v-3C70.5,3,70,3.3,70,3V2.7h2v4c0,0.5,0.1,0.9,0.6,0.9s0.5-0.2,0.8-0.5L73.4,3.5z"/>
	<path d="M78.2,7.3c0,0.5,0.6,0.2,0.6,0.6v0.3h-2.6V7.9c0-0.4,0.6-0.1,0.6-0.6V3.5c0-0.5-0.6-0.2-0.6-0.6V2.7h2.1V7.3z M76.4,1.1
		c0-0.5,0.4-0.9,0.9-0.9s0.9,0.4,0.9,0.9S77.8,2,77.3,2S76.4,1.6,76.4,1.1z"/>
	<path d="M83.9,7.3c0,0.5,0.6,0.2,0.6,0.6v0.3h-2V7.8l0,0c-0.3,0.4-0.7,0.6-1.1,0.5c-1.2,0-2-1.3-2-2.9s1.2-2.9,2.1-2.9
		c0.4,0,0.7,0.1,1,0.3V1c0-0.5-0.6-0.2-0.6-0.6V0.2H84L83.9,7.3z M82.4,3.5c-0.1-0.2-0.4-0.3-0.6-0.3c-0.8,0-0.8,1.1-0.8,2.2
		s0.1,2.2,0.8,2.2c0.3,0,0.5-0.2,0.7-0.4L82.4,3.5z"/>
	<path d="M86.8,5.4v0.4c0,0.9,0.3,1.9,1.2,1.9c0.7,0,1.4-0.5,1.5-1.3L90,6.8c-0.3,1-1.2,1.6-2.2,1.6c-1.5,0-2.7-1.2-2.7-2.7
		c0-0.1,0-0.2,0-0.2C84.9,4,86,2.7,87.5,2.5c0,0,0.1,0,0.1,0C88.9,2.5,90,3.5,90,4.7c0,0.1,0,0.3,0,0.4v0.2H86.8z M88.4,4.7V4.4
		c0-0.9-0.2-1.2-0.7-1.2c-0.7,0-0.8,0.7-0.8,1.6L88.4,4.7z"/>
	<path d="M8.3,13.1H7.5c-0.2,0-0.2-0.1-0.2-0.2v-0.3c0-0.1,0-0.2,0.2-0.2H10c0.2,0,0.2,0.1,0.2,0.2v0.3c0,0.1,0,0.2-0.2,0.2H9.2v3.2
		c0,0.2-0.1,0.2-0.2,0.2H8.6c-0.1,0-0.2,0-0.2-0.2L8.3,13.1z"/>
	<path d="M11.2,12.6c0-0.2,0.1-0.2,0.2-0.2h0.4c0.1,0,0.2,0,0.2,0.2V14h1.8v-1.4c0-0.2,0.1-0.2,0.2-0.2h0.4c0.1,0,0.2,0,0.2,0.2v3.7
		c0,0.2-0.1,0.2-0.2,0.2H14c-0.1,0-0.2,0-0.2-0.2v-1.5H12v1.5c0,0.2-0.1,0.2-0.2,0.2h-0.4c-0.1,0-0.2,0-0.2-0.2L11.2,12.6z"/>
	<path d="M15.9,12.6c0-0.2,0.1-0.2,0.2-0.2h2c0.2,0,0.2,0.1,0.2,0.2v0.3c0,0.1,0,0.2-0.2,0.2h-1.4V14h1.4c0.2,0,0.2,0.1,0.2,0.2v0.3
		c0,0.1,0,0.2-0.2,0.2h-1.4v1h1.5c0.2,0,0.2,0.1,0.2,0.2v0.3c0,0.1,0,0.2-0.2,0.2h-2.1c-0.1,0-0.2,0-0.2-0.2L15.9,12.6z"/>
	<path d="M21.5,12.6c0-0.2,0.1-0.2,0.2-0.2h1.2c0.9,0,1.3,0.4,1.3,1.1c0,0.4-0.2,0.7-0.6,0.9l0,0c0.4,0.1,0.7,0.5,0.7,0.9
		c0,0.8-0.6,1.2-1.4,1.2h-1.3c-0.1,0-0.2,0-0.2-0.2L21.5,12.6z M22.8,14.1c0.4,0,0.6-0.2,0.6-0.5s-0.2-0.5-0.6-0.5h-0.6v1H22.8z
		 M22.8,15.8c0.5,0,0.7-0.2,0.7-0.5s-0.2-0.5-0.6-0.5h-0.6v1.1L22.8,15.8z"/>
	<path d="M25.6,12.6c0-0.2,0.1-0.2,0.2-0.2h0.4c0.1,0,0.2,0,0.2,0.2v3.1h1.4c0.2,0,0.2,0.1,0.2,0.2v0.3c0,0.1,0,0.2-0.2,0.2h-2
		c-0.1,0-0.2,0-0.2-0.2L25.6,12.6z"/>
	<path d="M29.9,12.6c0-0.1,0.2-0.2,0.3-0.2h0.4c0.1,0,0.3,0.1,0.3,0.2l1.3,3.7c0,0.2,0,0.2-0.2,0.2h-0.5c-0.1,0-0.2-0.1-0.2-0.2
		l-0.2-0.6h-1.5l-0.2,0.6c0,0.1-0.1,0.2-0.2,0.2h-0.5c-0.1,0-0.2,0-0.1-0.2L29.9,12.6z M31,15l-0.5-1.6l0,0L29.9,15H31z"/>
	<path d="M35,12.3c0.8-0.1,1.5,0.4,1.8,1.1c0,0.1,0,0.2-0.2,0.3l-0.5,0.1c-0.1,0-0.2-0.1-0.3-0.2C35.8,13.2,35.4,13,35,13
		c-0.7,0.1-1.2,0.7-1.2,1.4c0,0,0,0,0,0.1c0,0.9,0.5,1.4,1.2,1.4c0.4,0,0.7-0.2,0.9-0.4c0.1-0.1,0.1-0.2,0.3-0.2l0.5,0.1
		c0.2,0,0.2,0.1,0.1,0.2c-0.3,0.7-1.1,1.1-1.8,1.1c-1.1,0-2-0.8-2.1-1.9c0-0.1,0-0.1,0-0.2c-0.1-1.1,0.8-2.1,1.9-2.2
		C34.9,12.3,35,12.3,35,12.3z"/>
	<path d="M37.9,12.6c0-0.2,0.1-0.2,0.2-0.2h0.4c0.1,0,0.2,0,0.2,0.2v1.7l0,0l1.2-1.8c0.1-0.1,0.2-0.2,0.3-0.2h0.6
		c0.1,0,0.1,0,0.1,0.1c0,0,0,0.1,0,0.1l-1.3,1.8l1.3,1.9c0,0,0.1,0.1,0.1,0.1c0,0.1,0,0.1-0.1,0.1h-0.7c-0.1,0-0.3-0.1-0.3-0.2
		l-1.2-1.8l0,0v1.8c0,0.2-0.1,0.2-0.2,0.2h-0.4c-0.1,0-0.2,0-0.2-0.2L37.9,12.6z"/>
	<path d="M44.6,13.1h-0.9c-0.2,0-0.2-0.1-0.2-0.2v-0.3c0-0.1,0-0.2,0.2-0.2h2.5c0.2,0,0.2,0.1,0.2,0.2v0.3c0,0.1,0,0.2-0.2,0.2h-0.9
		v3.2c0,0.2-0.1,0.2-0.2,0.2h-0.4c-0.1,0-0.2,0-0.2-0.2V13.1z"/>
	<path d="M47.4,12.6c0-0.2,0.1-0.2,0.2-0.2H48c0.1,0,0.2,0,0.2,0.2v2.2c0,0.7,0.3,1.1,0.8,1.1s0.9-0.4,0.9-1.1v-2.2
		c0-0.2,0.1-0.2,0.2-0.2h0.4c0.1,0,0.2,0,0.2,0.2v2.2c0,0.9-0.8,1.7-1.7,1.7s-1.7-0.8-1.7-1.7L47.4,12.6z"/>
	<path d="M52.8,14.4l-1.1-1.9c-0.1-0.1,0-0.2,0.1-0.2h0.6c0.1,0,0.2,0.1,0.3,0.2l0.7,1.2l0.6-1.2c0.1-0.1,0.1-0.2,0.3-0.2h0.6
		c0.1,0,0.2,0.1,0.1,0.2l-1.1,1.9l1.2,1.9c0.1,0.1,0,0.2-0.1,0.2h-0.6c-0.1,0-0.2-0.1-0.3-0.2l-0.7-1.2l-0.7,1.2
		c-0.1,0.1-0.2,0.2-0.3,0.2h-0.6c-0.1,0-0.2-0.1-0.1-0.2L52.8,14.4z"/>
	<path d="M0.4,15.9v0.4H0v-4h0.4v1.8c0.2-0.3,0.5-0.5,0.9-0.5c0.7,0,1.2,0.5,1.2,1.2c0,0,0,0.1,0,0.1l0,0c0.1,0.7-0.4,1.3-1.1,1.4
		c0,0-0.1,0-0.1,0C1,16.3,0.6,16.2,0.4,15.9z M2.1,15L2.1,15c0-0.7-0.4-1-0.8-1s-0.9,0.3-0.9,1l0,0c0,0.7,0.4,1,0.9,1
		S2.1,15.7,2.1,15z"/>
	<path d="M3.9,16l-1.1-2.4h0.5l0.8,1.9l0.8-1.9h0.4l-1.5,3.6H3.4L3.9,16z"/>
</g>
</svg>
