<?xml version="1.0" encoding="iso-8859-1"?>
<!-- Generator: Adobe Illustrator 19.2.1, SVG Export Plug-In . SVG Version: 6.00 Build 0)  -->
<svg class="icon-bow" version="1.1" id="bow-2" xmlns="http://www.w3.org/2000/svg" xmlns:xlink="http://www.w3.org/1999/xlink" x="0px" y="0px"
     viewBox="0 0 200 106" style="enable-background:new 0 0 200 106;" xml:space="preserve">
<g>
    <path d="M195,1c2,0,4,0,6,0c0,35.333,0,70.667,0,106c-2,0-4,0-6,0c-23.448-11.408-46.878-22.853-70.4-34.105
        c-1.109-0.531-3.14,0.422-4.564,1.073c-5.057,2.309-9.809,5.778-15.094,6.988c-10.039,2.3-18.518-1.922-25.793-9.227
        C55.023,83.524,31.011,95.262,7,107c-1.992,0-3.983,0-5.981,0c-0.006-35.333-0.006-70.667,0-106C3.017,1,5.008,1,7,1
        c23.852,11.648,47.704,23.297,71.351,34.845c15.712-14.254,28.345-14.189,45.155,0.074C147.242,24.326,171.121,12.663,195,1z
         M190.625,93.306c0-26.529,0-52.22,0-78.413c-2.036,0.881-3.693,1.528-5.29,2.299c-17.503,8.451-34.949,17.021-52.531,25.303
        c-3.689,1.738-5.491,3.369-4.125,7.774c0.741,2.39,0.438,5.388-0.258,7.87c-1.003,3.578-0.075,5.282,3.298,6.844
        c12.813,5.931,25.478,12.182,38.196,18.317C176.615,86.533,183.311,89.773,190.625,93.306z M73.326,63.379c0-6.6,0-12.5,0-18.784
        C52.95,34.756,32.367,24.816,11.309,14.648c0,26.498,0,52.202,0,78.691C32.512,83.096,53.234,73.085,73.326,63.379z
         M118.976,53.499c0.043-9.865-8.086-18.147-17.956-18.294c-9.901-0.147-18.119,7.891-18.27,17.871
        c-0.156,10.277,7.907,18.527,18.093,18.51C110.718,71.569,118.934,63.374,118.976,53.499z"/>
</g>
</svg>
