<?xml version="1.0" encoding="utf-8"?>
<!-- Generator: Adobe Illustrator 20.1.0, SVG Export Plug-In . SVG Version: 6.00 Build 0)  -->
<svg class="icon-list" version="1.1" id="list" xmlns="http://www.w3.org/2000/svg" xmlns:xlink="http://www.w3.org/1999/xlink" x="0px" y="0px"
	 viewBox="0 0 30 30" style="enable-background:new 0 0 30 30;" xml:space="preserve">
<g>
	<path d="M28,0H7C6.7,0,6.5,0.2,6.5,0.5v22H2c-0.3,0-0.5,0.2-0.5,0.5c0,4.2,2.5,7,6.3,7h6.8h7.9l0,0c3.7,0,6.1-2.3,6.1-6V0.5
		C28.5,0.2,28.2,0,28,0z M14.5,29H7.7c-3.1,0-5.1-2.1-5.3-5.5h15c0.2,2.6,2,4.4,3.3,5.5H14.5z M27.5,24c0,3.6-2.5,4.9-5,4.9
		c-0.6-0.3-4.1-2.4-4.1-5.9c0-0.3-0.2-0.5-0.5-0.5H7.5V1h20V24z"/>
	<path d="M11,20h5c0.3,0,0.5-0.2,0.5-0.5v-5c0-0.3-0.2-0.5-0.5-0.5h-5c-0.3,0-0.5,0.2-0.5,0.5v5C10.5,19.8,10.7,20,11,20z M11.5,15
		h4v4h-4V15z"/>
	<path d="M11,10h5c0.3,0,0.5-0.2,0.5-0.5v-5C16.5,4.2,16.2,4,16,4h-5c-0.3,0-0.5,0.2-0.5,0.5v5C10.5,9.8,10.7,10,11,10z M11.5,5h4v4
		h-4V5z"/>
</g>
</svg>
