<?xml version="1.0" encoding="utf-8"?>
<!-- Generator: Adobe Illustrator 19.2.1, SVG Export Plug-In . SVG Version: 6.00 Build 0)  -->
<svg version="1.1" class="icon-text-groomsguide" xmlns="http://www.w3.org/2000/svg" xmlns:xlink="http://www.w3.org/1999/xlink" x="0px" y="0px"
     viewBox="0 0 514.1 48.7" style="enable-background:new 0 0 514.1 48.7;" xml:space="preserve">
<g>
    <path d="M12.6,4.4H9.3C5.6,4.4,5,6.8,4.5,9.3c-0.5,2.4-0.7,4.9-3.3,4.9H0V0c0.8,0.2,1.6,0.4,2.4,0.6c0.8,0.2,1.7,0.3,2.5,0.3h25.3
        c0.8,0,1.7-0.1,2.5-0.3c0.8-0.2,1.6-0.4,2.4-0.6v14.2h-1.3c-2.6,0-2.8-2.5-3.3-4.9c-0.5-2.5-1.1-4.9-4.8-4.9h-3.3v37.5
        c0,3.7,3.6,1.8,3.6,3.7v2.1H9v-2.1c0-1.9,3.6,0,3.6-3.7V4.4z"/>
    <path d="M40.5,5.8c0-2.9-3.3-1.2-3.3-3.3V0.9h12.1v17.2c2.5-2.2,5.1-3.5,8.3-3.5c5.1,0,8.6,3.5,8.6,10v18.2c0,2.9,3.3,1.2,3.3,3.3
        v1.6H54.6v-1.6c0-2.1,2.8-0.4,2.8-3.3V24.2c0-3.3-1.1-5.1-3.3-5.1c-2,0-3.7,1.5-4.8,3.1v20.6c0,2.9,2.8,1.2,2.8,3.3v1.6H37.2v-1.6
        c0-2.1,3.3-0.4,3.3-3.3V5.8z"/>
    <path d="M82.8,31.3v2.6c0,5.2,1.6,11,7,11c5.2,0,7.7-3.8,8.8-7.4l2.9,2.1c-2.1,6.1-6,9.1-12.8,9.1c-9.7,0-15.9-7.3-15.9-17
        s6.3-17,14.7-17c9.8,0,13.7,7.4,13.7,15.3v1.3H82.8z M91.8,27.5v-2.1c0-5.2-1.4-7-4.1-7c-3.9,0-4.9,4.1-4.9,9.1H91.8z"/>
    <path d="M156.1,40c0,1.3,0.6,1.6,1.8,1.5v1.4c-1.8,2.5-6.9,5.7-16.3,5.7c-13.8,0-20-11.9-20-24.3S127.9,0,139.5,0
        c6.6,0,9.7,3.3,10.6,3.3c0.9,0,1.2-0.8,1.4-1.3h2.8v15.1h-1.9c-3.9,0-1.7-13.6-11.2-13.6c-6.9,0-8.8,8-8.8,22.1
        c0,13,2.3,19.6,8.6,19.6c3.9,0,5.3-2.2,5.3-7.7v-5.1c0-4.9-3.4-2.9-3.4-4.9v-2.3h14.3c-0.4,0.7-1.1,1.5-1.1,2.6L156.1,40L156.1,40z
        "/>
    <path d="M164.7,20.5c0-3-3.3-1.3-3.3-3.4v-1.6h11.5V24h0.1c2.5-5.6,4.2-9.3,8.2-9.3c2.8,0,4.8,2.6,4.8,5.7c0,2.6-1.3,5.7-4.5,5.7
        c-2.6,0-2.9-2.8-4.2-2.8c-0.6,0-1.1,1.1-1.9,2.5c-1.2,2.1-1.9,4.7-1.9,7.1v10c0,2.9,3.3,1.2,3.3,3.3v1.6h-15.4v-1.6
        c0-2.1,3.3-0.4,3.3-3.3L164.7,20.5L164.7,20.5z"/>
    <path d="M216.4,31.6c0,9.7-6.3,17-14.8,17s-14.8-7.3-14.8-17s6.3-17,14.8-17S216.4,22,216.4,31.6z M206.4,31.6
        c0-8.2-0.7-13.8-4.8-13.8s-4.8,5.6-4.8,13.8c0,8.4,0.7,14,4.8,14S206.4,39.9,206.4,31.6z"/>
    <path d="M249.2,31.6c0,9.7-6.3,17-14.8,17c-8.6,0-14.8-7.3-14.8-17s6.3-17,14.8-17C242.9,14.7,249.2,22,249.2,31.6z M239.1,31.6
        c0-8.2-0.7-13.8-4.8-13.8s-4.8,5.6-4.8,13.8c0,8.4,0.7,14,4.8,14S239.1,39.9,239.1,31.6z"/>
    <path d="M264.3,15.6v2.2c2.3-2.1,5-3.1,8-3.1c3.2,0,5.9,1.6,7.2,3.7c2.7-2.3,5.2-3.7,8.9-3.7c5.1,0,8.8,2.9,8.8,10.4v17.7
        c0,2.9,3.3,1.2,3.3,3.3v1.6h-14.9v-1.6c0-2.1,2.8-0.4,2.8-3.3V24c0-2.9-0.9-4.9-3.3-4.9c-1.7,0-3.2,1-4.3,2.5v21.2
        c0,2.9,2.3,1.2,2.3,3.3v1.6h-13.5v-1.6c0-2.1,2.3-0.4,2.3-3.3V24c0-2.9-0.9-4.9-3.3-4.9c-1.7,0-3.2,1-4.3,2.5v21.2
        c0,2.9,3.3,1.2,3.3,3.3v1.6h-15.4v-1.6c0-2.1,3.3-0.4,3.3-3.3V20.5c0-2.9-3.3-1.2-3.3-3.3v-1.6C252.2,15.6,264.3,15.6,264.3,15.6z"
        />
    <path d="M304.9,17.8c2.5-2.3,4.5-5.1,4.5-5.7c0-1.3-5.1-0.9-5.1-6.6c0-2.1,1.2-5.5,5-5.5c3.9,0,5.3,3.5,5.3,6.5
        c0,4.8-2.1,8.4-7.6,13.4L304.9,17.8z"/>
    <path d="M327.3,14.7c4,0,10.3,1.5,10.3,6.1c0,2.5-1.6,4.2-4.1,4.2c-2.3,0-3.9-1.2-3.9-3.4c0-0.9,0.3-1.5,0.3-2.3
        c0-0.9-0.7-1.5-2.9-1.5c-1.7,0-3.3,1-3.3,3.4c0,6.7,15.2,5.9,15.2,15.6c0,7.6-6.1,11.9-13.5,11.9c-6.3,0-11.2-2.9-11.2-7.4
        c0-2.5,1.4-4.7,4.5-4.7c2.4,0,4,1.5,4,3.9c0,1-0.6,1.9-0.6,2.9s0.7,2.1,3.1,2.1c3.5,0,5.6-1.9,5.6-4.9c0-6.5-15.2-6-15.2-16.3
        C315.7,18.8,320.8,14.7,327.3,14.7z"/>
    <path d="M393.9,40c0,1.3,0.6,1.6,1.8,1.5v1.4c-1.8,2.5-6.9,5.7-16.3,5.7c-13.8,0-20.1-11.9-20.1-24.3S365.6,0,377.2,0
        c6.6,0,9.7,3.3,10.6,3.3s1.2-0.8,1.4-1.3h2.8v15.1h-1.9c-3.9,0-1.7-13.6-11.2-13.6c-6.9,0-8.8,8-8.8,22.1c0,13,2.3,19.6,8.6,19.6
        c3.9,0,5.3-2.2,5.3-7.7v-5.1c0-4.9-3.4-2.9-3.4-4.9v-2.3h14.3c-0.4,0.7-1.1,1.5-1.1,2.6V40H393.9z"/>
    <path d="M419.3,20.5c0-2.9-3.3-1.2-3.3-3.3v-1.6h12.1v27.2c0,2.9,3.3,1.2,3.3,3.3v1.6h-12.1v-2.5c-1.8,1.6-4,3.5-8,3.5
        c-6.9,0-8.9-4.3-8.9-10.4V20.5c0-2.9-3.3-1.2-3.3-3.3v-1.6h12.1v23.2c0,3,0.8,5.4,3.4,5.4c1.7,0,3.1-1.4,4.7-3.1L419.3,20.5
        L419.3,20.5z"/>
    <path d="M446.2,42.8c0,2.9,3.3,1.2,3.3,3.3v1.6h-15.4v-1.6c0-2.1,3.3-0.4,3.3-3.3V20.5c0-2.9-3.3-1.2-3.3-3.3v-1.6h12.1V42.8z
         M436.2,6.4c0-2.9,1.9-5.5,5-5.5s5,2.6,5,5.5s-1.9,5.5-5,5.5C438.2,11.9,436.2,9.3,436.2,6.4z"/>
    <path d="M479,42.8c0,2.9,3.3,1.2,3.3,3.3v1.6h-11.8v-2.1h-0.1c-0.8,1.2-2.7,3-6.6,3c-6.9,0-11.7-7.4-11.7-16.9
        c0-10.4,6.7-17,12.4-17c2.7,0,4.4,1,5.7,1.7V5.8c0-2.9-3.3-1.2-3.3-3.3V0.9H479V42.8z M470.2,20.7c-0.5-0.5-1.7-1.9-3.5-1.9
        c-4.3,0-4.7,6.3-4.7,12.8s0.4,12.8,4.3,12.8c1.9,0,3.1-1.3,3.9-2.3L470.2,20.7L470.2,20.7z"/>
    <path d="M495.4,31.3v2.6c0,5.2,1.6,11,7,11c5.2,0,7.7-3.8,8.8-7.4l2.9,2.1c-2.1,6.1-6,9.1-12.8,9.1c-9.7,0-15.9-7.3-15.9-17
        s6.3-17,14.7-17c9.8,0,13.7,7.4,13.7,15.3v1.3H495.4z M504.4,27.5v-2.1c0-5.2-1.4-7-4.1-7c-3.9,0-4.9,4.1-4.9,9.1H504.4z"/>
</g>
</svg>
