<?xml version="1.0" encoding="utf-8"?>
<!-- Generator: Adobe Illustrator 19.2.1, SVG Export Plug-In . SVG Version: 6.00 Build 0)  -->
<svg version="1.1" class="icon-text-blacktux" xmlns="http://www.w3.org/2000/svg" xmlns:xlink="http://www.w3.org/1999/xlink" x="0px" y="0px"
     viewBox="0 0 559.9 40.1" style="enable-background:new 0 0 559.9 40.1;" xml:space="preserve">
<g>
    <path d="M10.2,7.6h-8C0.4,7.6,0,6.6,0,5.4V2.8c0-1.2,0.4-2.2,2.2-2.2h23.7c1.8,0,2.2,1,2.2,2.2v2.6c0,1.2-0.4,2.2-2.2,2.2h-8v29.6
        c0,1.8-1,2.2-2.2,2.2h-3.4c-1.2,0-2.2-0.4-2.2-2.2V7.6H10.2z"/>
    <path d="M36,2.9c0-1.8,1-2.2,2.2-2.2h3.4c1.2,0,2.2,0.4,2.2,2.2v13.5h16.6V2.9c0-1.8,1-2.2,2.2-2.2h3.3c1.2,0,2.2,0.4,2.2,2.2v34.3
        c0,1.8-1,2.2-2.2,2.2h-3.3c-1.2,0-2.2-0.4-2.2-2.2v-14H43.7v13.9c0,1.8-1,2.2-2.2,2.2h-3.4c-1.2,0-2.2-0.4-2.2-2.2V2.9H36z"/>
    <path d="M79.3,2.9c0-1.8,1-2.2,2.2-2.2h19.1c1.8,0,2.2,1,2.2,2.2v2.6c0,1.2-0.4,2.2-2.2,2.2H87v8.8h13c1.8,0,2.2,1,2.2,2.2v2.6
        c0,1.2-0.4,2.2-2.2,2.2H87v9.2h13.5c1.8,0,2.2,1,2.2,2.2v2.6c0,1.2-0.4,2.2-2.2,2.2h-19c-1.2,0-2.2-0.4-2.2-2.2V2.9z"/>
    <path d="M112.9,2.9c0-1.8,1-2.2,2.2-2.2h11.5c8.2,0,12.5,4.1,12.5,10.5c0,4.3-2.4,6.6-5.2,7.9v0.1c3.4,0.8,6.4,3.9,6.4,8.7
        c0,7.1-5.4,11.3-13.4,11.3H115c-1.2,0-2.2-0.4-2.2-2.2L112.9,2.9L112.9,2.9z M125.3,16.6c3.6,0,6.1-1.6,6.1-4.8s-2.3-4.5-5.4-4.5
        h-5.3v9.3C120.7,16.6,125.3,16.6,125.3,16.6z M125.7,32.7c4.8,0,6.6-2.2,6.6-4.9c0-2.5-1.5-5-6-5h-5.7v9.9
        C120.6,32.7,125.7,32.7,125.7,32.7z"/>
    <path d="M149.6,2.9c0-1.8,1-2.2,2.2-2.2h3.4c1.2,0,2.2,0.4,2.2,2.2v29.2h12.7c1.8,0,2.2,1,2.2,2.2v2.9c0,1.2-0.4,2.2-2.2,2.2h-18.2
        c-1.2,0-2.2-0.4-2.2-2.2L149.6,2.9L149.6,2.9z"/>
    <path d="M189.7,2.8c0.5-1.2,1.6-2,2.9-2h3.8c1.2,0,2.4,0.8,2.8,2l12,34.5c0.5,1.5-0.3,2-1.4,2h-4.7c-1.2,0-1.9-0.9-2.3-2l-1.9-6
        h-13.5l-1.8,6c-0.4,1.2-1,2.1-2.3,2.1h-4.5c-1.1,0-2-0.5-1.4-2L189.7,2.8z M199.2,25l-4.9-15h-0.1l-4.9,15H199.2z"/>
    <path d="M236.2,0c8,0,14.4,2.8,17,10.4c0.4,1.1,0.3,2.1-1.4,2.4l-4.2,0.8c-1.2,0.2-1.9-0.6-2.5-1.8c-1.6-3.5-4.8-5-8.9-5
        c-6.6,0-10.8,6-10.8,13.2c0,8.2,4.4,13.1,11.1,13.1c3.3,0,6.4-1.2,8.3-4.1c0.7-1.2,1.3-1.9,2.6-1.8l4.6,0.6
        c1.6,0.2,1.7,1.3,1.2,2.3c-3.1,6.9-9.5,9.9-17.1,9.9c-11.2,0-19.2-7.1-19.2-20C217.1,8.8,224.9,0,236.2,0z"/>
    <path d="M262.2,2.9c0-1.8,1-2.2,2.2-2.2h3.4c1.2,0,2.2,0.4,2.2,2.2v15.9h0.1l11.1-16.3c0.8-1.1,1.7-1.8,3-1.8h5.3
        c0.7,0,1.2,0.2,1.2,0.9c0,0.2-0.2,0.6-0.4,0.9l-12,16.7l12.1,17.9c0.2,0.3,0.6,0.8,0.6,1.2c0,0.6-0.5,0.9-1.3,0.9H284
        c-1.3,0-2.2-0.7-2.9-1.8L270,20.3h-0.1v16.8c0,1.8-1,2.2-2.2,2.2h-3.4c-1.2,0-2.2-0.4-2.2-2.2V2.9H262.2z"/>
    <path d="M305,7.6h-8c-1.8,0-2.2-1-2.2-2.2V2.8c0-1.2,0.4-2.2,2.2-2.2h23.7c1.8,0,2.2,1,2.2,2.2v2.6c0,1.2-0.4,2.2-2.2,2.2h-8v29.6
        c0,1.8-1,2.2-2.2,2.2h-3.4c-1.2,0-2.2-0.4-2.2-2.2V7.6H305z"/>
    <path d="M330.4,2.9c0-1.8,1-2.2,2.2-2.2h3.3c1.2,0,2.2,0.4,2.2,2.2v20.5c0,6.4,2.4,9.8,7.9,9.8c5.4,0,8-3.4,8-9.8V2.9
        c0-1.8,1-2.2,2.2-2.2h3.3c1.2,0,2.2,0.4,2.2,2.2v20.4c0,12-7.3,16.7-15.7,16.7s-15.5-4.7-15.5-16.7V2.9H330.4z"/>
    <path d="M380.8,19.8L370.5,2.6c-0.7-1.2,0.1-1.9,1-1.9h5.4c1.3,0,2,0.7,2.6,1.9l6,11.1l6-11.1c0.6-1.2,1.3-1.9,2.6-1.9h5.3
        c1,0,1.8,0.6,1,1.9L390,19.8l10.8,17.6c0.8,1.2-0.1,1.9-1,1.9h-5.7c-1.3,0-2-0.7-2.7-1.9l-6.2-11.1l-6.3,11.1
        c-0.7,1.1-1.4,1.9-2.7,1.9h-5.4c-1,0-1.8-0.6-1-1.8L380.8,19.8z"/>
    <path d="M412.3,31.3c2.3,0,4.3,1.9,4.3,4.3c0,2.3-2,4.3-4.3,4.3c-2.4,0-4.3-2-4.3-4.3C408,33.2,409.9,31.3,412.3,31.3z"/>
    <path d="M444.5,0c8,0,14.4,2.8,17,10.4c0.4,1.1,0.3,2.1-1.4,2.4l-4.2,0.8c-1.2,0.2-1.9-0.6-2.5-1.8c-1.6-3.5-4.8-5-8.9-5
        c-6.6,0-10.8,6-10.8,13.2c0,8.2,4.4,13.1,11.1,13.1c3.3,0,6.4-1.2,8.3-4.1c0.7-1.2,1.3-1.9,2.6-1.8l4.6,0.6
        c1.6,0.2,1.7,1.3,1.2,2.3C458.4,37,452,40,444.4,40c-11.2,0-19.2-7.1-19.2-20C425.3,8.8,433.1,0,444.5,0z"/>
    <path d="M488.3,0c12.7,0,19.9,9.7,19.9,20.1c0,10.3-7.1,20-19.9,20c-12.7,0-19.9-9.7-19.9-20C468.5,9.7,475.7,0,488.3,0z
         M488.3,33.2c7.6,0,11.6-6.2,11.6-13.1c0-7-4-13.2-11.6-13.2c-7.5,0-11.5,6.2-11.5,13.2C476.8,26.9,480.8,33.2,488.3,33.2z"/>
    <path d="M518.3,2.9c0-1.8,1-2.2,2.2-2.2h6.1c1.2,0,1.9,0.8,2.4,2l10.3,25.8l10-25.7c0.5-1.2,1.3-2,2.6-2h5.8c1.2,0,2.2,0.4,2.2,2.2
        v34.3c0,1.8-1,2.2-2.2,2.2h-3.1c-1.2,0-2.2-0.4-2.2-2.2V12h-0.1l-10.4,25.4c-0.5,1.1-0.8,1.9-2.1,1.9h-1.6c-1.2,0-1.7-0.8-2.2-1.9
        l-10.2-24.8h-0.1v24.6c0,1.8-1,2.2-2.2,2.2h-3.1c-1.2,0-2.2-0.4-2.2-2.2L518.3,2.9L518.3,2.9z"/>
</g>
</svg>
