<?xml version="1.0" encoding="utf-8"?>
<!-- Generator: Adobe Illustrator 20.1.0, SVG Export Plug-In . SVG Version: 6.00 Build 0)  -->
<svg class="icon-pin" version="1.1" id="pin" xmlns="http://www.w3.org/2000/svg" xmlns:xlink="http://www.w3.org/1999/xlink" x="0px" y="0px"
	 viewBox="0 0 30 30" style="enable-background:new 0 0 30 30;" xml:space="preserve">
<path d="M29.9,29.2l-9.9-13l3.4-3.4c0.2-0.2,0.2-0.5,0-0.7c-0.8-0.8-1.8-1.7-3-2.1c-0.8-0.3-1.6-0.2-2.4,0.2l-5.1-5.1l0.7-0.7
	c0.2-0.2,0.2-0.5,0-0.7L10,0.2C9.8,0,9.5,0,9.3,0.2L0.1,9.4C0,9.6,0,9.9,0.1,10.1l3.5,3.5c0.1,0.1,0.2,0.1,0.4,0.1
	c0.2,0,0.3-0.1,0.4-0.1l0.7-0.7l5.3,5.3c-0.5,1.8,0.3,3.8,1.7,5.2c0.1,0.1,0.2,0.1,0.4,0.1s0.3-0.1,0.4-0.1l3.9-3.9l12.5,10.4
	c0.1,0.1,0.2,0.1,0.3,0.1c0.1,0,0.2,0,0.3-0.1C30,29.7,30.1,29.4,29.9,29.2z M4,12.6L1.2,9.8l8.5-8.5l2.8,2.8L4,12.6z M5.8,12.2
	l6.3-6.3l4.9,4.9c-0.1,0.1-0.3,0.3-0.4,0.4l-5.2,5.2c-0.3,0.3-0.5,0.5-0.6,0.8L5.8,12.2z M12.5,22.4c-1.3-1.6-1.8-3.8-0.3-5.3
	l5.2-5.2c0.7-0.7,1.3-1,2-1c0.2,0,0.5,0,0.7,0.1c0.8,0.3,1.6,0.9,2.3,1.5L12.5,22.4z M17.4,18.9l1.9-1.9l7.2,9.4L17.4,18.9z"/>
</svg>
