<?xml version="1.0" encoding="iso-8859-1"?>
<!-- Generator: Adobe Illustrator 19.2.1, SVG Export Plug-In . SVG Version: 6.00 Build 0)  -->
<svg version="1.1" xmlns="http://www.w3.org/2000/svg" xmlns:xlink="http://www.w3.org/1999/xlink" x="0px" y="0px"
     viewBox="0 0 114.65 114.736" style="enable-background:new 0 0 114.65 114.736;" xml:space="preserve">
<g>
    <path d="M61.6,77.2c-10.7,5.4-21.6,6.8-33,3.1C9.5,74.2-2.8,54,0.6,34.5C4.2,14,21.9-0.7,42.6,0C72.1,1,91,30.8,79,57.8
        c-1.6,3.5-0.8,5.2,1.6,7.5c10.2,10,20.4,20.2,30.4,30.4c4,4.1,4.7,9.3,2.2,13.7c-2.4,4.1-7,6.3-12,4.9c-2.4-0.7-4.7-2.4-6.6-4.1
        C83.6,99.3,72.7,88.3,61.6,77.2z M63.2,14C47.9,1.9,26.9,4.1,14.5,18.9c-10.9,13-10.6,34.3,0.1,43.7C30.7,46.5,46.8,30.4,63.2,14z
         M19.8,68.2c12.5,11.6,34,10.4,46.6-2.7c12.5-13,13.3-34.2,2-45.6C52.3,35.9,36.1,52,19.8,68.2z M67.2,74.1
        c3.6,3.6,7.4,7.2,11.1,11c7.2,7.2,14.4,14.3,21.6,21.5c2.2,2.2,5.1,2.9,6.9,0.3c1-1.5,1-5.2-0.1-6.4C95.9,89.3,84.8,78.4,73.8,67.4
        C71.6,69.7,69.6,71.7,67.2,74.1z"/>
</g>
</svg>
