<?xml version="1.0" encoding="utf-8"?>
<!-- Generator: Adobe Illustrator 20.1.0, SVG Export Plug-In . SVG Version: 6.00 Build 0)  -->
<svg class="icon-share" version="1.1" id="share" xmlns="http://www.w3.org/2000/svg" xmlns:xlink="http://www.w3.org/1999/xlink" x="0px" y="0px"
	 viewBox="0 0 21 21" style="enable-background:new 0 0 21 21;" xml:space="preserve">
<path d="M17.5,14.4c-0.9,0-1.8,0.4-2.4,1l-8.4-4.2c0-0.2,0.1-0.4,0.1-0.5c0-0.2,0-0.4-0.1-0.6l8.4-4.4c0.6,0.6,1.4,1,2.3,1
	c1.8,0,3.3-1.5,3.3-3.3S19.3,0,17.5,0s-3.3,1.5-3.3,3.3c0,0.2,0,0.4,0.1,0.6L5.8,8.3c-0.6-0.6-1.4-1-2.3-1c-1.8,0-3.3,1.5-3.3,3.3
	S1.7,14,3.5,14c0.9,0,1.8-0.4,2.4-1l8.4,4.2c0,0.2-0.1,0.4-0.1,0.5c0,1.8,1.5,3.3,3.3,3.3s3.3-1.5,3.3-3.3
	C20.8,15.9,19.3,14.4,17.5,14.4z"/>
</svg>
