<?xml version="1.0" encoding="iso-8859-1"?>
<svg version="1.1" class="icon-logo-pintrest" xmlns="http://www.w3.org/2000/svg" xmlns:xlink="http://www.w3.org/1999/xlink" x="0px" y="0px"
     viewBox="0 0 32 32" style="enable-background:new 0 0 32 32;" xml:space="preserve">
<path d="M16,0C7.164,0,0,7.164,0,16c0,8.838,7.164,16,16,16s16-7.162,16-16C32,7.164,24.836,0,16,0z M17.652,19.562
    c-0.992,0-1.926-0.535-2.245-1.145c0,0-0.534,2.117-0.647,2.525c-0.398,1.445-1.569,2.891-1.659,3.008
    c-0.064,0.082-0.204,0.057-0.219-0.053c-0.025-0.184-0.324-2.006,0.027-3.492c0.177-0.746,1.183-5.008,1.183-5.008
    s-0.294-0.586-0.294-1.453c0-1.363,0.79-2.379,1.774-2.379c0.836,0,1.238,0.627,1.238,1.379c0,0.84-0.534,2.098-0.811,3.262
    c-0.231,0.975,0.488,1.769,1.45,1.769c1.741,0,2.914-2.236,2.914-4.887c0-2.014-1.357-3.522-3.824-3.522
    c-2.787,0-4.524,2.08-4.524,4.402c0,0.801,0.236,1.365,0.607,1.801c0.17,0.201,0.193,0.283,0.132,0.514
    c-0.045,0.168-0.144,0.576-0.188,0.736c-0.061,0.234-0.25,0.316-0.46,0.23c-1.284-0.523-1.882-1.93-1.882-3.512
    c0-2.609,2.201-5.74,6.568-5.74c3.509,0,5.818,2.539,5.818,5.266C22.611,16.869,20.606,19.562,17.652,19.562z"/>
</svg>
