<?xml version="1.0" encoding="iso-8859-1"?>
<!-- Generator: Adobe Illustrator 19.2.1, SVG Export Plug-In . SVG Version: 6.00 Build 0)  -->
<svg version="1.1" class="icon-hanger" xmlns="http://www.w3.org/2000/svg" xmlns:xlink="http://www.w3.org/1999/xlink" x="0px" y="0px"
     viewBox="0 0 188 111" style="enable-background:new 0 0 188 111;" xml:space="preserve">
<g>
    <path d="M4,111c-4.857-5.032-4.482-7.265,1.628-11.013c29.207-17.917,58.419-35.826,87.57-53.833
        c8.336-5.149,15.311-11.387,15.084-22.406c-0.098-4.744-1.157-9.126-5.801-11.326c-5.114-2.423-10.457-2.553-15.093,1.094
        c-2.43,1.912-3.95,4.994-6.404,6.858c-1.68,1.276-4.836,2.448-6.282,1.682c-1.481-0.784-2.76-4.281-2.265-6.078
        c2.52-9.155,15.135-16.084,26.263-14.945c10.561,1.081,18.088,8.561,19.356,18.999c1.306,10.746-2.405,19.586-9.88,27.09
        c-1.401,1.406-2.813,2.802-4.533,4.515c1.446,0.967,2.742,1.901,4.1,2.732c24.828,15.194,49.661,30.38,74.499,45.557
        c6.188,3.781,6.536,5.89,1.756,11.074C124,111,64,111,4,111z M161.79,100.691c0.168-0.299,0.336-0.598,0.504-0.897
        c-1.477-0.926-2.946-1.866-4.433-2.775c-20.007-12.228-40.063-24.375-59.974-36.756c-3.022-1.879-5.08-1.65-7.962,0.137
        C69.575,73.023,49.111,85.46,28.696,97.976c-1.016,0.623-1.914,1.438-3.592,2.715C71.351,100.691,116.571,100.691,161.79,100.691z"
        />
</g>
</svg>
